<?xml version="1.0" encoding="utf-8"?>
<!-- Generator: Adobe Illustrator 19.2.1, SVG Export Plug-In . SVG Version: 6.00 Build 0)  -->
<svg version="1.1" xmlns="http://www.w3.org/2000/svg" xmlns:xlink="http://www.w3.org/1999/xlink" x="0px" y="0px"
	 viewBox="0 0 1008 1008" style="enable-background:new 0 0 1008 1008;" xml:space="preserve">
<style type="text/css">
	.st0{fill:#FFFFFF;}
	.st1{fill:#D9534F;}
	.st2{fill:#0275D8;}
</style>
<g id="Layer_2">
	<rect x="0" class="st0" width="1008" height="1008"/>
</g>
<g id="Layer_1">
	<path class="st1" d="M913,936H455c-12.7,0-23-10.3-23-23V455c0-12.7,10.3-23,23-23h458c12.7,0,23,10.3,23,23v458
		C936,925.7,925.7,936,913,936z"/>
	<path class="st2" d="M553,576H95c-12.7,0-23-10.3-23-23V95c0-12.7,10.3-23,23-23h458c12.7,0,23,10.3,23,23v458
		C576,565.7,565.7,576,553,576z"/>
</g>
</svg>
